<?xml version="1.0" encoding="utf-8"?>
<!-- Generator: Adobe Illustrator 25.0.1, SVG Export Plug-In . SVG Version: 6.00 Build 0)  -->
<svg version="1.1" id="Layer_1" xmlns="http://www.w3.org/2000/svg" xmlns:xlink="http://www.w3.org/1999/xlink" x="0px" y="0px"
	 viewBox="0 0 38 54" style="enable-background:new 0 0 38 54;" xml:space="preserve">
<style type="text/css">
	.st0{fill:#A14329;}
	.st1{fill:#FCC083;}
	.st2{fill:#FFFFFF;}
	.st3{fill:#E8AA63;}
	.st4{fill:#505050;}
	.st5{fill:#53C2C9;}
</style>
<g>
	<path class="st0" d="M31.7,38.1c0,0,0-13.2,0-17.1c0-10.1-5.6-18.2-12.6-18.2C12.1,2.8,6.5,10.9,6.5,21c0,3.9,0,17.1,0,17.1H31.7z"
		/>
	<g>
		<path class="st1" d="M22,28.2h-2.6h-0.6h-2.6c0,0,0.9,6.3-3.3,11.6l6,9.6h0.6l6-9.6C21.1,34.5,22,28.2,22,28.2z"/>
		<polygon class="st2" points="12.9,39.8 18.8,49.4 19.4,49.4 25.3,39.8 		"/>
		<g>
			<path class="st3" d="M22,28.2h-2.6h-0.6h-2.6c0,0,0.1,0.8,0.1,2.1c1,0.6,2,1,2.8,1c0.8,0,1.9-0.4,2.9-1.1
				C21.9,29,22,28.2,22,28.2z"/>
		</g>
	</g>
	<path class="st1" d="M28.7,16.2c-0.3-0.7-0.8-0.4-1.2,0.1c0.1-5.6-2.9-8.5-2.9-8.5L19.1,6l-5.6,1.8c0,0-3,2.9-2.9,8.4
		c-0.4-0.5-0.8-0.8-1.1-0.1c-0.5,1.3,0.7,3.1,0.5,4.9c-0.2,1.2,0.8,1.1,1.4,0.8c0.2,0.9,0.6,2,1.1,3.3c1.2,2.7,4.5,5.2,6.6,5.2
		c2.1,0,5.4-2.5,6.6-5.2c0.6-1.2,0.9-2.3,1.1-3.3c0.6,0.4,1.6,0.5,1.5-0.7C28,19.3,29.2,17.5,28.7,16.2z"/>
	<g>
		<path class="st0" d="M25.3,7.2l-2.4,0.6c0.3,0.6,1.9,2.5,2.8,4.9c0.8,2.2,0.9,4.8,0.9,7l0.4-0.7c0.6-1.1,1-2.2,1.1-3.5
			C28.4,12.2,28.6,5.9,25.3,7.2z"/>
		<path class="st0" d="M11.2,18.9l0.4,0.7c-0.1-2.2,0-4.8,0.9-7c0.9-2.4,2.5-4.3,2.8-4.9l-2.4-0.6c-3.3-1.3-3.1,5-2.8,8.3
			C10.2,16.7,10.5,17.9,11.2,18.9z"/>
	</g>
	<path class="st0" d="M19.1,6C10.8,4.2,10,13,10,13c6.9,1.7,8.7-2.1,9.1-4.7c0.4,2.6,2.1,6.4,9.1,4.7C28.1,13,27.4,4.2,19.1,6z"/>
	<g>
		<path class="st4" d="M11,16.4c-0.1-2.3,0.2-5.1,1.3-7.3c1.3-2.5,3.6-3.8,6.8-3.8s5.4,1.3,6.8,3.8c1.2,2.2,1.4,5,1.3,7.3h1.1
			c0.1-2.5-0.2-5.7-1.5-8.2c-1.5-2.9-4.1-4.4-7.6-4.4c-3.5,0-6.1,1.5-7.6,4.4c-1.3,2.6-1.6,5.7-1.5,8.2H11z"/>
		<g>
			<path class="st4" d="M10.4,15.7c-0.2-0.1-0.5-0.2-0.7-0.2c-1.2,0-2.2,1.4-2.2,3c0,1.7,1,3,2.2,3c0.3,0,0.5-0.1,0.7-0.2V15.7z"/>
			<path class="st5" d="M11.2,14.9c-0.2-0.1-0.4-0.2-0.6-0.2h0c-0.7,0-1.3,0.6-1.3,1.3v5.3c0,0.7,0.6,1.3,1.3,1.3h0
				c0.2,0,0.4-0.1,0.6-0.2V14.9z"/>
		</g>
		<path class="st4" d="M28,21.4l-0.6,0c0,0.2-0.1,5.1-6.1,5.6c-0.1-0.2-0.3-0.3-0.5-0.3h-2.3c-0.3,0-0.6,0.3-0.6,0.6v0
			c0,0.3,0.3,0.6,0.6,0.6h2.3c0.3,0,0.5-0.2,0.6-0.4C27.9,27,28,21.5,28,21.4z"/>
		<g>
			<path class="st4" d="M27.7,15.7c0.2-0.1,0.5-0.2,0.7-0.2c1.2,0,2.2,1.4,2.2,3c0,1.7-1,3-2.2,3c-0.3,0-0.5-0.1-0.7-0.2V15.7z"/>
			<path class="st5" d="M26.9,14.9c0.2-0.1,0.4-0.2,0.6-0.2h0c0.7,0,1.3,0.6,1.3,1.3v5.3c0,0.7-0.6,1.3-1.3,1.3h0
				c-0.2,0-0.4-0.1-0.6-0.2V14.9z"/>
		</g>
	</g>
	<path class="st4" d="M33.9,39.2c-0.8-1.6-2.4-2.9-4.4-3.4l-7-1.6l-3.5,13l-3.5-13l-6.9,1.6c-2,0.5-3.6,1.7-4.4,3.4
		c0,0-2.3,8-0.9,8.7c2.6,1.3,5.4,2,8.3,2.3c5,0.5,9.9,0.5,14.9,0c2.9-0.3,5.7-1.1,8.3-2.3C36.2,47.3,33.9,39.2,33.9,39.2z"/>
	<rect x="22.9" y="42.8" class="st2" width="5.9" height="1.3"/>
</g>
</svg>
