<?xml version="1.0" encoding="utf-8"?>
<!-- Generator: Adobe Illustrator 25.0.1, SVG Export Plug-In . SVG Version: 6.00 Build 0)  -->
<svg version="1.1" id="Layer_1" xmlns="http://www.w3.org/2000/svg" xmlns:xlink="http://www.w3.org/1999/xlink" x="0px" y="0px"
	 viewBox="0 0 413 433" style="enable-background:new 0 0 413 433;" xml:space="preserve">
<style type="text/css">
	.st0{fill:#34283B;}
	.st1{opacity:0.75;fill:#8A8C8E;enable-background:new    ;}
	.st2{fill:#0B0B0B;}
	.st3{fill:#DDC8AC;}
	.st4{fill:#1A2235;}
	.st5{fill:#F14543;}
	.st6{fill:#B9B1BB;}
	.st7{fill:#8D7F90;}
	.st8{opacity:0.55;fill:#B3C7C9;enable-background:new    ;}
	.st9{fill:#F9FBF2;}
	.st10{fill:#FFDFD8;}
	.st11{fill:#F2B597;}
	.st12{fill:#EFBA9E;}
	.st13{fill:#FFD3B0;}
	.st14{fill:#E38A61;}
	.st15{fill:#D66B64;}
	.st16{opacity:0.55;fill:#D66B64;enable-background:new    ;}
	.st17{fill:#F9F8F7;}
	.st18{fill:#C94854;}
	.st19{fill:#FDF3ED;}
	.st20{opacity:0.12;}
	.st21{opacity:0.55;fill:url(#SVGID_1_);enable-background:new    ;}
	.st22{opacity:0.55;fill:url(#SVGID_2_);enable-background:new    ;}
</style>
<g>
	<g>
		<g>
			<path class="st0" d="M123.9,92.4L144.1,242c0.4,3.7,3.7,6.4,7.5,6.4c15-0.4,53.1-2.2,85.3-7.9c3.7-0.7,6.4-4.1,6-7.9L234.6,82
				c-0.4-4.1-3.7-7.5-7.9-7.1l-96.1,9C126.5,84.6,123.5,88.3,123.9,92.4z"/>
			<path class="st1" d="M237.6,133.6L235,82.4c-0.4-4.1-3.7-7.5-7.9-7.1l-59.5,5.6C181.9,92.4,229,127.2,237.6,133.6z"/>
			<path class="st1" d="M127.3,113.7c7.9,5.6,111.5,80.4,113.7,81.2l-1.1-20.2c0,0-0.4,0-0.4-0.4c-16.8-10.5-107.7-81.5-114.1-87.1
				c-0.7,1.5-1.1,3-1.1,4.9L127.3,113.7C126.9,113.4,126.9,113.7,127.3,113.7z"/>
			<path class="st1" d="M133.3,159.8l1.9,14.6L236.9,241c3.4-0.7,5.6-3.4,6-6.7C242.1,233.4,146.7,170.2,133.3,159.8z"/>
			<path class="st2" d="M133.6,93.2l18.3,136.1l0,0c0,0,46.8-0.7,80.8-7.5l-7.5-137.3l0,0L133.6,93.2z"/>
			<path class="st3" d="M135.9,96.2L153.5,226l0,0c0,0,44.5-0.4,77-7.1l-7.1-130.5l0,0L135.9,96.2z"/>
			<path class="st4" d="M144.5,106.6l14.6,107l0,0c0,0,36.7-0.4,63.6-6l-6-107.7l0,0L144.5,106.6z"/>
			<polygon class="st5" points="214.1,112.6 213.7,105.9 148.6,111.9 149.4,118.2 			"/>
			<path class="st6" d="M198,235.7c0.4,2.2-1.5,4.1-4.1,4.5c-2.2,0.4-4.5-1.5-4.9-3.7s1.5-4.1,4.1-4.5
				C195.7,231.9,197.6,233.4,198,235.7z"/>
			<path class="st7" d="M195.4,236.8c-1.9,0-3.4-1.1-3.7-2.6c0-0.4,0-0.4,0-0.7c-1.1,0.7-1.9,1.9-1.9,3c0,1.5,1.9,3,3.7,2.6
				c1.5,0,2.6-1.1,3-2.6C196.5,236.8,196.1,236.8,195.4,236.8z"/>
			<polygon class="st6" points="166.6,84.6 166.6,88.3 186.8,86.4 186.4,83.5 			"/>
			<path class="st6" d="M193.9,83.8c0,1.1-0.7,1.9-1.9,1.9s-2.2-0.7-2.2-1.5c0-1.1,0.7-1.9,1.9-1.9S193.9,83.1,193.9,83.8z"/>
			<path class="st8" d="M202.1,111.1c8.2,6,16.5,12,25.1,18.3l-2.2-43l-50.9,4.5C183.4,97.3,192.4,104,202.1,111.1z"/>
		</g>
		<g>
			<path class="st9" d="M213.3,159.8l-0.4-2.6c-1.1-14.6-13.8-25.4-28.4-23.9h-0.7c-14.6,1.5-25.1,14.6-23.2,29.2l0.4,2.6
				c1.9,13.8,14.2,23.9,28.1,22.8c0.4,0,0.4,0,0.7,0C204,186.3,214.4,174,213.3,159.8z"/>
			<g>
				<g>
					<path class="st0" d="M196.5,140.3l-9.7,8.2l3.4,3l1.9-1.1c0,0,4.1,5.6-2.6,10.8c-7.1,5.6-11.6,1.9-11.6,1.9l1.1-1.5l-3-2.6
						l-9.4,9l3.7,4.1l5.2-1.9c0,0,12.3,9,22.8-1.5s0-19.8,0-19.8l2.2-4.1L196.5,140.3z"/>
				</g>
			</g>
		</g>
		<g>
			<path class="st10" d="M313.5,429.4c0,0,56.9-14.6,63.6-22.1c0,0-27.7-52-29.2-68.1c-1.9-16.5-3.4-24.7-4.9-37
				s-8.6-47.1-11.2-56.9c-2.6-9.7-6.4-25.1-10.1-27.3c-6-4.1-19.4,1.9-20.2,3.7c0,0-0.7-16.8-24.3-4.5c0,0-3-15.3-27.3-3.7
				c0,0-7.5-10.5-13.5-20.9c-6.7-11.6-12.7-23.2-17.2-23.6c-7.1-0.7-14.6,3.4-13.1,12c1.1,5.6,4.1,13.8,9.4,23.6
				c12.7,25.1,27.3,46.8,33.3,61.7c6.4,15,19.1,43.4,9.7,46.8c-14.6,5.2-22.8-5.2-35.5-7.9c-12.7-3-30.7-1.1-32.9,7.1
				c-1.9,8.2,28.1,14.6,33.3,17.2s22.4,23.9,40.8,27.7c18.3,3.7,29.2,17.6,31.8,23.6C298.2,386.4,313.5,429.4,313.5,429.4z"/>
			<path class="st11" d="M358.4,402.1c-15.7,4.5-38.5,8.2-47.9-9.7c-12-22.8-11.6-29.5-37-39.3c-9.7-3.7-18.7-3-27.7-7.9
				c-8.6-4.9-11.2-7.9-20.6-14.6c6.7,5.2,22.4,22.8,38.9,26.2c18.3,3.7,29.2,17.6,31.8,23.6c2.2,6,18,49,18,49s56.9-14.6,63.6-22.1
				c0,0-1.9-3.4-4.5-8.6C367.4,399.9,362.5,401,358.4,402.1z"/>
			<path class="st12" d="M258.2,313.1c-14.6,5.2-22.8-5.2-35.5-7.9c-0.4,0-0.7,0-1.1,0c4.5,1.9,9,4.1,14.6,6.7s13.1,12,24.7,10.5
				c5.2-1.5,9.7-4.9,9.7-11.6c0-22.1-13.8-41.9-29.5-59.1c3,5.6,5.6,10.5,7.5,15C254.8,281.7,267.5,310.1,258.2,313.1z"/>
			<path class="st13" d="M211.4,315c-6-1.9-15,1.1-18.7,2.6c6.4,4.9,20.9,8.6,27.7,10.8C220,323.6,217,316.5,211.4,315z"/>
			<path class="st13" d="M218.9,191.5c2.6-0.7,6.7-2.2,6.7-5.6s-1.5-9.4-5.6-16.5c-0.4,0-0.7-0.4-1.1-0.4
				c-5.6-0.4-11.2,1.9-12.7,7.1C208.4,181.8,214.1,193,218.9,191.5z"/>
			<path class="st14" d="M251.8,212.9c0,0,19.4,41.9,18.7,42.3s-25.8-48.6-25.8-48.6L251.8,212.9z"/>
			<path class="st14" d="M279.9,216.2c0,0,12.3,32.2,11.2,32.2c-1.5,0-15.7-35.2-15.7-35.2L279.9,216.2z"/>
			<path class="st14" d="M303.4,220.3c0,0,7.5,26.9,6.7,26.2c-0.7-0.7-10.1-28.8-10.1-28.8S303.4,219.6,303.4,220.3z"/>
		</g>
		<g>
			<g>
				<g>
					<g>
						<path class="st15" d="M293.4,119c26.2,9.7,56.1,11.6,79.7,3c48.6-18.3,38.5-65.1-7.9-93.9C330.4,6.4,284.7,2.7,257.1,14.6
							c-26.9,12-36.7,38.5-18,65.5c5.6,8.2,13.5,15.7,22.4,22.4c-7.5,9.7-24.7,26.9-52.7,31C209.2,133.6,257.8,147.4,293.4,119z"/>
						<path class="st16" d="M348.7,80.1c22.8,4.9,32.9,4.9,52-2.6c-2.6-16.1-15.7-33.7-37.4-46.8C333,12,294.5,7.5,268.3,16.1
							C285.9,48.7,321,74.1,348.7,80.1z"/>
						<path class="st15" d="M247,136.2c-17.6,0.4-30.3-3-30.3-3c28.1-4.1,45.3-20.9,52.4-31c-9.4-6.7-17.6-14.2-23.2-22.4
							c-19.1-26.9-10.1-53.5,16.8-65.5c9-4.1,19.8-6,31-6.7c-13.1,0-25.8,2.2-36.7,6.7c-26.9,12-36.7,38.5-18,65.5
							c5.6,8.2,13.5,15.7,22.4,22.4c-7.5,9.7-24.7,26.9-52.7,31C209.2,133.6,225.3,138.1,247,136.2z"/>
						<path class="st15" d="M270.9,131c-9.4-3-17.2-8.2-22.1-15.3c-9.4,7.9-22.8,15.3-39.6,18c0,0,0,0,0.4,0h0.4l0,0
							c3.4,0.7,18.3,4.1,37,2.6l0,0l0,0C254.8,135.4,263.1,133.9,270.9,131z"/>
					</g>
				</g>
			</g>
			<g>
				<path class="st17" d="M275.8,32.2l-3,6.4c-0.4,0-0.7-0.4-0.7-0.4c-0.4,0-0.7-0.4-0.7-0.4c-0.7-0.4-1.5-0.4-2.2-0.4
					s-1.5,0-2.2,0.4s-1.1,0.7-1.9,1.1c-0.4,0.4-0.7,1.1-1.1,2.2c0,0.4-0.4,1.1,0,1.5c0,0.4,0.4,0.7,0.4,1.1c0.4,0.4,0.4,0.7,1.1,1.1
					c0.4,0.4,0.7,0.4,1.5,0.7c0.4,0,0.7,0.4,1.1,0.4s0.7,0,1.5,0c0.4,0,0.7,0,1.5,0c0.4,0,0.7,0,1.1-0.4l-3,7.1c-0.4,0-1.1,0-1.5,0
					s-1.1,0-1.5,0s-1.1,0-1.5-0.4c-0.4,0-1.1-0.4-1.5-0.4c-1.5-0.4-2.6-1.1-3.4-1.9c-1.1-0.7-1.9-1.9-2.2-3
					c-0.7-1.1-1.1-2.2-1.1-3.7s0-2.6,0.4-4.1c0.7-1.9,1.5-3.4,2.2-4.9c1.1-1.5,2.2-2.6,3.7-3.4c1.5-0.7,3-1.5,4.5-1.9
					c1.9-0.4,3.4,0,5.6,0.4c0.7,0.4,1.5,0.4,2.2,0.7C274.6,31.5,275.4,31.8,275.8,32.2z"/>
				<path class="st17" d="M293,49.8c-0.4,1.1-0.7,1.9-1.1,2.6c-0.4,0.7-1.1,1.5-1.9,2.2c-0.7,0.7-1.5,1.1-2.2,1.5s-1.5,0.7-2.6,1.1
					c-0.7,0.4-1.9,0.4-2.6,0.4c-1.1,0-1.9,0-3-0.4s-1.9-0.7-2.6-1.1s-1.5-1.1-2.2-1.9s-1.1-1.5-1.5-2.2s-0.7-1.5-0.7-2.6
					c-0.4-0.7-0.4-1.9-0.4-2.6c0-1.1,0.4-1.9,0.4-3c0.4-0.7,0.7-1.9,1.1-2.6c0.4-0.7,1.1-1.5,1.9-2.2c0.7-0.7,1.5-1.1,2.2-1.9
					c0.7-0.4,1.5-0.7,2.6-1.1c0.7-0.4,1.9-0.4,2.6-0.4c1.1,0,1.9,0,3,0.4c1.5,0.4,3,1.1,4.1,1.9s1.9,1.9,2.6,3s1.1,2.6,1.1,3.7
					C293.7,46.8,293.4,48.3,293,49.8z M285.9,47.9c0-0.4,0.4-0.7,0.4-1.5c0-0.4,0-0.7-0.4-1.5c0-0.4-0.4-0.7-0.7-1.1
					c-0.4-0.4-0.7-0.7-1.1-0.7s-1.1-0.4-1.5,0c-0.4,0-0.7,0.4-1.1,0.4c-0.4,0.4-0.7,0.4-1.1,0.7c-0.4,0.4-0.4,0.7-0.7,1.1
					c0,0.4-0.4,0.7-0.4,1.5c0,0.4,0,1.1,0.4,1.5c0,0.4,0.4,0.7,0.7,1.1c0.4,0.4,0.7,0.7,1.1,0.7s1.1,0.4,1.5,0
					c0.4,0,0.7-0.4,1.1-0.4c0.4-0.4,0.7-0.7,1.1-1.1C285.5,49,285.5,48.7,285.9,47.9z"/>
				<path class="st17" d="M319.2,45.3l-7.9,21.3l-8.6-1.9l-0.7-13l-4.5,11.6l-7.1-2.2l7.5-22.4l8.2,2.2L308,54l3.7-10.8L319.2,45.3z
					"/>
				<path class="st17" d="M337.1,50.9l-2.2,6.7l-4.9-1.1l-6,14.6l-6.7-1.9l4.9-15l-4.9-1.1l2.6-7.5L337.1,50.9z"/>
				<path class="st17" d="M349.5,78.2l-8.2-1.5V73l-3.7-1.1l-1.9,3.4l-7.9-3.4l13.1-19.1l9,2.2L349.5,78.2z M342.3,67.7l0.4-6
					l-3,5.2L342.3,67.7z"/>
				<path class="st17" d="M371.5,62.1l-3,6.4c-0.4,0-0.7-0.4-0.7-0.4c-0.4,0-0.7-0.4-0.7-0.4c-0.7-0.4-1.5-0.4-2.2-0.4
					s-1.5,0-2.2,0.4s-1.1,0.7-1.9,1.1c-0.4,0.4-0.7,1.1-1.1,2.2c0,0.4-0.4,1.1,0,1.5c0,0.4,0.4,0.7,0.4,1.1c0.4,0.4,0.4,0.7,1.1,1.1
					c0.4,0.4,0.7,0.4,1.5,0.7c0.4,0,0.7,0.4,1.1,0.4s0.7,0,1.5,0c0.4,0,0.7,0,1.5,0c0.4,0,0.7,0,1.1-0.4l-3,7.1c-0.4,0-1.1,0-1.5,0
					s-1.1,0-1.5,0s-1.1,0-1.5-0.4c-0.4,0-1.1-0.4-1.5-0.4c-1.5-0.4-2.6-1.1-3.4-1.9c-1.1-0.7-1.9-1.9-2.2-3
					c-0.7-1.1-1.1-2.2-1.1-3.7s0-2.6,0.4-4.1c0.7-1.9,1.5-3.4,2.2-4.9c1.1-1.5,2.2-2.6,3.7-3.4s3-1.5,4.5-1.9c1.9-0.4,3.4,0,5.6,0.4
					c0.7,0.4,1.5,0.4,2.2,0.7C371.5,60.6,370.8,61.8,371.5,62.1z"/>
				<path class="st17" d="M389.5,67.4l-2.2,6.7l-4.9-1.1l-6,14.6l-6.7-1.9l4.9-15l-4.9-1.1l2.6-7.5L389.5,67.4z"/>
				<path class="st17" d="M315,80.8c-0.4,0.7-0.4,1.5-0.7,2.6c-0.4,0.7-0.7,1.9-1.1,3s-1.1,1.9-1.5,3c-0.7,1.1-1.1,1.9-1.9,2.6
					c-0.7,0.7-1.5,1.5-2.2,2.2s-1.5,1.1-2.6,1.5c-0.7,0.4-1.9,0.7-2.6,0.7c-1.1,0-1.9,0-3-0.4s-2.2-0.7-3-1.5s-1.5-1.5-1.9-2.2
					s-0.7-1.9-0.7-3s0-2.2,0-3c0-1.1,0.4-2.2,0.4-3.4c0.4-1.1,0.4-2.2,0.7-3c0.4-1.5,1.1-3,1.5-4.5c0.7-1.5,1.1-3,1.9-4.1l7.5,2.6
					c-0.7,1.5-1.5,3-2.2,4.9c-0.7,1.5-1.5,3.4-1.9,4.9c0,0,0,0.4-0.4,0.7c0,0.4-0.4,0.7-0.4,1.1s0,0.7-0.4,1.5c0,0.4,0,1.1,0,1.5
					s0,0.7,0.4,1.1c0,0.4,0.4,0.4,0.7,0.7c0.4,0,0.7,0,1.1,0c0.4-0.4,0.7-0.4,1.1-1.1c0.4-0.4,0.7-1.1,1.1-1.5
					c0.4-0.7,0.7-1.1,1.1-1.9c0.4-0.7,0.7-1.5,0.7-1.9c0.4-0.7,0.4-1.1,0.7-1.9c0.4-0.7,0.4-1.1,0.7-1.5c0-0.4,0.4-0.7,0.4-1.1
					c0.4-0.7,0.4-1.5,0.7-2.6c0.4-0.7,0.4-1.5,0.7-2.6l7.5,2.2C316.2,77.5,315.8,79,315,80.8z"/>
				<path class="st17" d="M329.6,95.4c-0.4,1.5-1.1,2.6-1.9,3.7c-0.7,0.7-1.9,1.5-3,2.2c-1.1,0.4-2.2,0.7-3.7,0.7
					c-1.1,0-2.6-0.4-4.1-0.7c-0.4,0-1.1-0.4-1.5-0.7c-0.7-0.4-1.1-0.7-1.9-1.1s-1.1-0.7-1.5-1.1s-1.1-0.7-1.5-1.1l2.6-6.4
					c0.7,0.7,1.5,1.5,2.6,2.2s1.9,1.1,3,1.5c0.4,0,0.4,0,0.7,0.4c0.4,0,0.7,0,0.7,0s0.4,0,0.7,0c0.4,0,0.4-0.4,0.4-0.7
					c0-0.4,0-0.4,0-0.7l-0.4-0.4c0,0-0.4-0.4-0.7-0.4s-0.4-0.4-0.7-0.4s-0.4,0-0.7-0.4c-0.4,0-0.4,0-0.4,0c-0.7-0.4-1.9-0.7-2.2-1.1
					c-0.7-0.4-1.1-1.1-1.5-1.9c-0.4-0.7-0.7-1.5-0.7-2.2s0-1.9,0.4-2.6c0.4-1.1,1.1-2.2,1.9-3c0.7-0.7,1.9-1.5,2.6-1.9
					c1.1-0.4,2.2-0.7,3.4-0.7s2.2,0,3.7,0.4c0.4,0,1.1,0.4,1.5,0.4c0.4,0.4,1.1,0.4,1.5,0.7s1.1,0.4,1.5,0.7
					c0.4,0.4,0.7,0.7,1.1,1.1l-2.6,6.4c-0.7-0.4-1.5-0.7-2.2-1.5c-0.7-0.4-1.5-0.7-2.2-1.1h-0.4c-0.4,0-0.4,0-0.7,0s-0.4,0-0.7,0
					c-0.4,0-0.4,0-0.7,0s-0.4,0-0.7,0.4l-0.4,0.4c0,0.4,0,0.4,0,0.7s0.4,0.4,0.4,0.4c0.4,0,0.4,0.4,0.7,0.4s0.7,0.4,0.7,0.4
					c0.4,0,0.7,0.4,0.7,0.4c0.4,0,0.4,0,0.7,0.4c0.7,0.4,1.5,0.7,2.2,1.1s1.1,1.1,1.5,1.9c0.4,0.7,0.4,1.5,0.4,2.2
					C328.1,95,330,94.7,329.6,95.4z"/>
			</g>
		</g>
		<path class="st15" d="M130.6,176.6c0,0-10.8,18-24.7,17.6c-8.6-14.6-27.7-23.6-49.4-22.1C28.4,174.3,7.1,194.5,9,217.4
			s26.2,39.3,54.2,37c26.6-2.2,46.8-20.2,47.9-41.1C120.2,208.8,134,198.7,130.6,176.6z"/>
		<path class="st18" d="M110.8,207.3c-0.7,20.9-21.3,38.9-47.9,41.1c-28.1,2.2-52-14.2-54.2-36.7c0,1.9-0.4,3.7,0,5.6
			c1.9,22.8,26.2,39.3,54.2,37c26.6-2.2,46.8-20.2,47.9-41.1c8.6-4.1,21.7-13.8,20.2-33.7C129.9,195.3,118.7,203.5,110.8,207.3z"/>
		<g>
			<path class="st19" d="M44.6,207.3c0,1.1,0,2.2-0.4,3c-0.4,1.1-0.7,1.9-1.5,3c-0.7,0.7-1.1,1.9-1.9,2.6c-0.7,0.7-1.5,1.5-2.2,2.2
				l6.4-0.4v8.6L25.9,227l-0.7-7.5c0.7-0.4,1.5-0.7,2.2-1.1s1.5-0.7,2.2-1.5c0.7-0.4,1.5-1.1,2.2-1.9c0.7-0.7,1.1-1.1,1.5-1.9
				c0.4-0.7,0.7-1.5,1.1-2.2c0.4-0.7,0.4-1.5,0.4-2.6c0-0.4,0-1.1-0.4-1.5s-0.4-0.7-0.7-0.7c-0.4-0.4-0.7-0.4-1.1-0.4s-0.7,0-1.5,0
				c-0.4,0-0.7,0-1.1,0.4c-0.4,0-0.7,0.4-1.1,0.4c-0.4,0.4-0.7,0.4-1.1,0.7c-0.4,0.4-0.7,0.7-0.7,0.7l-2.6-7.9
				c0.4-0.4,1.1-1.1,1.5-1.5c0.7-0.4,1.1-0.7,1.9-1.1c0.7-0.4,1.5-0.4,2.2-0.7c0.7,0,1.5-0.4,2.2-0.4c1.5,0,3,0,4.5,0.4
				s2.6,1.1,3.7,2.2c1.1,0.7,1.9,2.2,2.6,3.4C43.9,204.3,44.2,205.8,44.6,207.3z"/>
			<path class="st19" d="M67.8,214.7h-1.9l0.4,9l-9.4,1.5l-0.4-9.4l-10.8,1.1l1.5-18.3l7.9-0.7L54,210.6l2.6-0.4l-0.4-15.7l9-0.7
				l0.7,15.3l1.5-0.4L67.8,214.7z"/>
			<path class="st19" d="M94.7,222.6l-10.1,1.1l-0.7-9.4l-4.9,0.4l0.4,9l-9,0.7l-1.5-28.7l9.7-0.4l0.4,14.6l4.5-0.4l-1.1-15.7
				l9.4-0.4L94.7,222.6z"/>
		</g>
	</g>
	<g class="st20">
		
			<radialGradient id="SVGID_1_" cx="208.7925" cy="1051.1335" r="26.7925" gradientTransform="matrix(1 0 0 1 0 -865.8874)" gradientUnits="userSpaceOnUse">
			<stop  offset="0" style="stop-color:#FFC9BD"/>
			<stop  offset="0.1536" style="stop-color:#E6B2AD"/>
			<stop  offset="0.5533" style="stop-color:#A87B87"/>
			<stop  offset="0.8466" style="stop-color:#82596F"/>
			<stop  offset="1" style="stop-color:#734C66"/>
		</radialGradient>
		<path class="st21" d="M293.4,119c26.2,9.7,56.1,11.6,79.7,3c48.6-18.3,38.5-65.1-7.9-93.9c-22.8-14.2-50.1-20.6-74.1-20.2
			c0.7,0,1.9-0.4,2.6-0.4c-10.8,0-21.3,1.5-30.7,4.9c-0.4,0-0.4,0-0.7,0.4c-1.9,0.7-3.4,1.1-5.2,1.9c-26.9,12-36.7,38.5-18,65.5
			c5.6,8.2,13.5,15.7,22.4,22.4c-3,3.7-7.1,8.6-12.7,13.1l0,0c-3.4,3-7.5,5.6-12,8.2l-1.1-18l-1.1-23.6c0-2.6-1.5-4.9-3.7-6
			c-1.1-0.7-2.6-1.1-4.1-1.1l-96.1,9c-2.2,0.4-4.5,1.5-5.6,3.4l0,0V88l-0.4,0.4c0,0.4-0.4,0.4-0.4,0.7v0.4c0,0.4,0,0.7,0,0.7v0.4
			c0,0.4,0,1.1,0,1.5l20.2,149.6c0.4,3.7,3.7,6.4,7.5,6.4c15-0.4,52-1.9,83.4-7.5c2.2,3.7,4.1,7.5,6,10.8l0,0
			c0.7,1.1,1.5,2.6,1.9,3.7c0.7,1.5,1.5,3,2.2,4.5c0.4,0.4,0.4,1.1,0.7,1.5c0.7,1.9,1.5,3.4,2.2,5.2c3,7.5,7.9,18.3,10.5,27.7
			c0.4,1.1,0.7,2.2,1.1,3.4c0.7,2.2,1.1,4.5,1.1,6.4c0,1.1,0,1.9,0,2.6c0,2.2-0.4,4.1-1.5,5.2c0,0,0,0.4-0.4,0.4
			c-0.4,0.4-0.7,0.7-1.5,0.7c-5.6,1.9-10.1,1.9-14.2,0.4c-1.5-0.4-2.6-0.7-4.1-1.5s-2.6-1.1-4.1-1.9c-1.5-0.7-2.6-1.5-4.1-1.9
			c-2.6-1.1-5.6-2.6-9-3.4c-12.7-3-30.7-1.1-32.9,7.1c-0.4,1.9,0.7,3.7,3,5.2l0,0l0,0c4.5,3.7,13.8,6.7,20.9,9
			c2.6,0.7,4.9,1.5,6.7,2.2l0,0c1.1,0.4,1.9,0.7,2.6,1.1c0.4,0.4,1.1,0.7,1.9,1.1c3.4,2.6,9.4,8.6,16.5,14.2l0.4,0.4
			c0.7,0.7,1.5,1.1,2.2,1.9c0.4,0,0.4,0.4,0.7,0.4c0.7,0.4,1.5,1.1,2.2,1.5c0.4,0.4,0.7,0.4,0.7,0.7c0.7,0.4,1.5,0.7,2.2,1.1
			c0.4,0.4,0.7,0.4,1.1,0.7c0.7,0.4,1.5,0.7,1.9,1.1s0.7,0.4,1.1,0.7c0.7,0.4,1.5,0.7,1.9,1.1c0.4,0,0.7,0.4,1.1,0.4
			c0.7,0.4,1.5,0.7,2.2,0.7c0.4,0,0.7,0.4,1.1,0.4c1.1,0.4,2.2,0.7,3.4,0.7c7.9,1.5,14.6,5.2,19.8,9.4c1.5,1.1,2.6,2.2,4.1,3.4
			c0.7,0.7,1.1,1.1,1.9,1.9c1.1,1.1,1.9,2.2,3,3.4c1.5,2.2,2.6,4.1,3.4,5.6c0,0,0,0.4,0.4,0.7c0.4,0.7,0.7,1.9,1.1,3
			c0.7,1.9,1.5,3.7,2.2,6.4c0.7,2.6,1.9,5.2,3,7.9c2.2,6.4,4.9,13.1,6.7,19.1c0.4,1.1,0.7,2.6,1.1,3.7c0.4,0.4,0.4,1.1,0.7,1.5
			c0.4,1.1,0.7,1.9,1.1,3c0.7,2.6,1.5,4.1,1.5,4.1s56.9-14.6,63.6-22.1c0,0-1.9-3.4-4.5-8.6l0,0c-7.9-15.3-23.6-47.5-24.7-59.5
			c-1.9-16.5-3.4-24.7-4.9-37s-8.6-47.1-11.2-56.9s-6.4-25.1-10.1-27.3c-4.9-3.4-14.2-0.4-18.3,2.2l0,0c-0.4-0.7-3.4-2.6-3.4-2.6
			l0,0c-2.2-3.7-7.5-7.5-20.6-1.1l0,0l-4.9-3l0,0c-3-3.4-9.4-6.4-23.2-0.4l0,0l-7.1-6.4c-1.1-1.9-2.6-3.7-3.7-5.6l-3.4-63.6
			C254.5,136.9,275.8,133.2,293.4,119z M301.6,221.8L301.6,221.8L301.6,221.8L301.6,221.8z"/>
		
			<radialGradient id="SVGID_2_" cx="208.7925" cy="1051.1333" r="26.7925" gradientTransform="matrix(1 0 0 1 0 -865.8874)" gradientUnits="userSpaceOnUse">
			<stop  offset="0" style="stop-color:#FFC9BD"/>
			<stop  offset="0.1536" style="stop-color:#E6B2AD"/>
			<stop  offset="0.5533" style="stop-color:#A87B87"/>
			<stop  offset="0.8466" style="stop-color:#82596F"/>
			<stop  offset="1" style="stop-color:#734C66"/>
		</radialGradient>
		<path class="st22" d="M124.7,202.4L124.7,202.4c0.7-0.7,1.1-1.5,1.5-2.2l0,0c0.4-0.7,0.7-1.5,1.1-2.2l0,0c0.4-0.7,0.7-1.5,1.1-2.2
			l0,0c0.4-0.7,0.7-1.5,0.7-2.6l0,0c0.4-0.7,0.4-1.9,0.7-2.6l0,0c0.4-1.1,0.4-1.9,0.4-3l0,0c0-1.1,0-2.2,0-3.4l0,0
			c0-2.2,0-4.1-0.4-6.4c0,0-10.8,18-24.7,17.6c-8.5-14.7-27.6-23.7-49.3-22.2c-25.8,1.9-45.6,19.1-47.5,39.6l0,0l0,0
			c0,0.7,0,1.5,0,2.2c0,1.1,0,2.2,0,3.4c1.9,22.8,26.2,39.3,54.2,37c26.6-2.2,46.8-20.2,47.9-41.1c0.4-0.4,1.1-0.4,1.9-0.7
			c0.4,0,0.7-0.4,0.7-0.4c0.4,0,0.4-0.4,0.7-0.4c0.4-0.4,0.7-0.4,1.1-0.7c0.4,0,0.4-0.4,0.7-0.4c0.4-0.4,0.7-0.7,1.5-1.1l0.4-0.4
			c0.4-0.4,1.1-0.7,1.5-1.1c0,0,0.4,0,0.4-0.4c0.4-0.4,1.1-0.7,1.5-1.5c0,0,0.4,0,0.4-0.4c0.4-0.4,1.1-1.1,1.5-1.5c0,0,0,0,0.4-0.4
			C123.9,203.5,124.3,203.1,124.7,202.4z"/>
	</g>
</g>
</svg>
